<?xml version="1.0" standalone="no"?>
<!DOCTYPE svg PUBLIC "-//W3C//DTD SVG 20010904//EN"
 "http://www.w3.org/TR/2001/REC-SVG-20010904/DTD/svg10.dtd">
<svg version="1.0" xmlns="http://www.w3.org/2000/svg"
 width="180.000000pt" height="180.000000pt" viewBox="0 0 180.000000 180.000000"
 preserveAspectRatio="xMidYMid meet">
<metadata>
Created by potrace 1.11, written by Peter Selinger 2001-2013
</metadata>
<g transform="translate(0.000000,180.000000) scale(0.100000,-0.100000)"
fill="#000000" stroke="none">
<path d="M1063 1674 c-7 -3 -13 -19 -13 -35 0 -24 4 -29 25 -29 41 0 94 -27
106 -54 27 -58 -74 -184 -336 -420 -249 -225 -277 -248 -288 -237 -4 4 -7 145
-5 313 3 261 5 307 19 329 15 22 42 37 127 70 16 6 22 16 20 31 l-3 22 -337 1
-338 0 0 -32 c0 -29 3 -33 38 -38 118 -21 170 -56 191 -130 17 -63 15 -1073
-3 -1148 -17 -70 -45 -103 -106 -121 -32 -9 -46 -19 -48 -33 -6 -43 14 -46
218 -32 155 10 213 10 306 0 125 -14 148 -8 142 33 -3 21 -8 23 -97 46 -52 14
-92 52 -110 106 -15 43 -27 347 -17 390 9 33 123 154 146 154 10 0 34 -25 55
-57 139 -211 485 -647 529 -665 23 -10 87 -14 251 -13 l220 1 3 23 c5 32 -4
38 -94 70 -167 58 -226 118 -566 570 -171 227 -186 253 -167 287 13 26 328
315 437 401 72 57 159 105 232 125 34 10 46 19 48 35 6 38 -26 45 -146 32 -97
-10 -214 -9 -372 6 -30 2 -61 2 -67 -1z"/>
</g>
</svg>
